<?xml version="1.0" encoding="UTF-8" standalone="no"?>
<svg width="44px" height="44px" viewBox="0 0 44 44" version="1.1" xmlns="http://www.w3.org/2000/svg" xmlns:xlink="http://www.w3.org/1999/xlink">
    <!-- Generator: Sketch 48.1 (47250) - http://www.bohemiancoding.com/sketch -->
    <title>004-confirm</title>
    <desc>Created with Sketch.</desc>
    <defs></defs>
    <g id="step-4-order-confirmation" stroke="none" stroke-width="1" fill="none" fill-rule="evenodd" transform="translate(-296.000000, -63.000000)">
        <g id="004-confirm" transform="translate(296.000000, 63.000000)" fill-rule="nonzero">
            <path d="M22,0 C9.865625,0 0,9.86562628 0,22 C0,34.1343737 9.865625,44 22,44 C34.134375,44 44,34.1343737 44,22 C44,9.86562628 34.134375,0 22,0 Z M22,43.3126073 C10.24375,43.3126073 0.6875,33.7563036 0.6875,22.0000817 C0.6875,10.2438598 10.24375,0.687474455 22,0.687474455 C33.75625,0.687474455 43.3125,10.2437781 43.3125,22 C43.3125,33.7562219 33.75625,43.3126073 22,43.3126073 Z" id="Shape" fill="#000000"></path>
            <path d="M35.6779661,8.45764898 C38.6610169,11.9491546 40.3220339,16.3898551 40.3220339,21 C40.3220339,31.6440418 31.6440678,40.3219806 21,40.3219806 C10.3559322,40.3219806 1.6779661,31.6441224 1.6779661,21 C1.6779661,10.3558776 10.3559322,1.67801939 21,1.67801939 C25.5762712,1.67801939 30.0508475,3.30515306 33.5084746,6.28816429 C33.6440678,6.42375204 33.8813559,6.38989541 33.9830508,6.25422704 C34.1186441,6.11863929 34.0847458,5.88132041 33.9491525,5.7796699 C30.3559322,2.69492755 25.7457627,1 21,1 C9.98305085,1 1,9.98305153 1,21 C1,32.0169485 9.98305085,41 21,41 C32.0169492,41 41,32.0169485 41,21 C41,16.2542673 39.3050847,11.6101852 36.220339,8.01694847 C36.0847458,7.88136071 35.8813559,7.84742347 35.7457627,7.98301123 C35.5762712,8.08482296 35.5762712,8.32206122 35.6779661,8.45764898 Z" id="Shape" fill="#000000"></path>
            <path d="M30.6864738,16 C30.3080532,16 29.9640344,16.1351301 29.7232213,16.4053902 L20.0906959,25.831074 L14.3111806,20.1216278 C13.7951525,19.6148498 12.9007037,19.6148498 12.3846755,20.1216278 L11.3870211,21.1013609 C10.870993,21.6081389 10.870993,22.452742 11.3870211,22.9932622 L19.1274433,30.5946098 C19.3682565,30.8311276 19.7122752,31 20.0906959,31 C20.4691165,31 20.8131353,30.8648699 21.0539484,30.5946098 L32.6129789,19.2432823 C33.129007,18.7365044 33.129007,17.8919013 32.6129789,17.351381 L31.6153245,16.4054705 C31.3745113,16.1351301 31.0304926,16 30.6864738,16 Z M32.1313526,18.7702467 L20.5723221,30.1216546 C20.331509,30.3581723 19.8842846,30.3581723 19.6090696,30.1216546 L11.8686474,22.520307 C11.5934324,22.2500469 11.5934324,21.8446567 11.8686474,21.5743965 L12.8663018,20.5946634 C13.0039093,20.4595333 13.1759187,20.3919683 13.3479281,20.3919683 C13.5199375,20.3919683 13.6919468,20.4595333 13.8295543,20.5946634 L19.8842846,26.5406274 C20.0218921,26.6757575 20.2283034,26.6757575 20.3659109,26.5406274 L30.2048475,16.8783454 C30.4456607,16.6418277 30.8928851,16.6418277 31.1681001,16.8783454 L32.1657545,17.8580786 C32.4065676,18.0945964 32.4065676,18.5338093 32.1313526,18.7702467 Z" id="Shape" fill="#DA2536"></path>
        </g>
    </g>
</svg>